<svg width="28" height="26" viewBox="0 0 28 26" fill="none" xmlns="http://www.w3.org/2000/svg">
<rect x="0.173401" width="27.1532" height="25.3333" rx="5" fill="#BEBEBE"/>
<rect x="0.173401" width="27.1532" height="25.3333" rx="5" fill="white"/>
<path d="M13.7477 9.77655C12.1728 9.77655 10.8876 11.0753 10.8876 12.6667C10.8876 14.2581 12.1728 15.5568 13.7477 15.5568C15.3225 15.5568 16.6077 14.2581 16.6077 12.6667C16.6077 11.0753 15.3225 9.77655 13.7477 9.77655ZM22.3256 12.6667C22.3256 11.4699 22.3363 10.2839 22.2698 9.08925C22.2033 7.70165 21.89 6.47015 20.8859 5.45546C19.8797 4.43861 18.6631 4.12423 17.29 4.05702C16.1056 3.9898 14.932 4.00064 13.7498 4.00064C12.5655 4.00064 11.3919 3.9898 10.2097 4.05702C8.8365 4.12423 7.61782 4.44078 6.61371 5.45546C5.60744 6.47231 5.29634 7.70165 5.22982 9.08925C5.16331 10.2861 5.17404 11.472 5.17404 12.6667C5.17404 13.8613 5.16331 15.0494 5.22982 16.2441C5.29634 17.6317 5.60959 18.8632 6.61371 19.8779C7.61997 20.8947 8.8365 21.2091 10.2097 21.2763C11.394 21.3435 12.5676 21.3327 13.7498 21.3327C14.9342 21.3327 16.1078 21.3435 17.29 21.2763C18.6631 21.2091 19.8818 20.8926 20.8859 19.8779C21.8922 18.861 22.2033 17.6317 22.2698 16.2441C22.3385 15.0494 22.3256 13.8635 22.3256 12.6667ZM13.7477 17.1135C11.3125 17.1135 9.34714 15.1275 9.34714 12.6667C9.34714 10.2058 11.3125 8.21983 13.7477 8.21983C16.1829 8.21983 18.1482 10.2058 18.1482 12.6667C18.1482 15.1275 16.1829 17.1135 13.7477 17.1135ZM18.3284 9.07624C17.7599 9.07624 17.3007 8.61226 17.3007 8.03771C17.3007 7.46315 17.7599 6.99917 18.3284 6.99917C18.897 6.99917 19.3562 7.46315 19.3562 8.03771C19.3563 8.17414 19.3299 8.30926 19.2783 8.43534C19.2267 8.56142 19.151 8.67597 19.0555 8.77244C18.96 8.86891 18.8467 8.94541 18.7219 8.99754C18.5972 9.04967 18.4634 9.07641 18.3284 9.07624Z" fill="#929292"/>
</svg>
