<svg width="118" height="22" viewBox="0 0 118 22" fill="none" xmlns="http://www.w3.org/2000/svg">
<path d="M9.4214 1.296H13.3894L15.7894 16.88L17.5814 1.296H21.9334L18.5734 22H13.4854L11.4054 9.296L9.3254 22H4.2374L0.877401 1.296H5.2294L7.0214 16.88L9.4214 1.296ZM28.4944 13.872V22H24.0144V1.296H28.4944V9.968H32.0464V1.296H36.5264V22H32.0464V13.872H28.4944ZM47.5731 0.976C50.2185 0.976 51.5412 2.384 51.5412 5.2V22H47.0611V15.056H43.8291V22H39.3491V5.2C39.3491 2.384 40.6718 0.976 43.3171 0.976H47.5731ZM43.8291 11.6H47.0611V4.656C47.0611 4.48533 46.9971 4.336 46.8692 4.208C46.7625 4.08 46.6238 4.016 46.4531 4.016H44.4371C44.2665 4.016 44.1171 4.08 43.9891 4.208C43.8825 4.336 43.8291 4.48533 43.8291 4.656V11.6ZM53.3124 5.104V1.296H64.5124V5.104H61.1524V22H56.6724V5.104H53.3124ZM70.5589 14.896V18.32H77.4709V22H66.4629V14.544C66.4629 11.728 67.7856 10.32 70.4309 10.32H72.9909C73.1616 10.32 73.3002 10.256 73.4069 10.128C73.5349 10 73.5989 9.85067 73.5989 9.68V5.104C73.5989 4.93333 73.5349 4.784 73.4069 4.656C73.3002 4.528 73.1616 4.464 72.9909 4.464H71.1029C70.9322 4.464 70.7829 4.528 70.6549 4.656C70.5482 4.784 70.4949 4.93333 70.4949 5.104V6.736H66.2389V5.2C66.2389 2.384 67.5616 0.976 70.2069 0.976H73.7589C76.4042 0.976 77.7269 2.384 77.7269 5.2V10.032C77.7269 12.848 76.4042 14.256 73.7589 14.256H71.1669C70.9962 14.256 70.8469 14.32 70.7189 14.448C70.6122 14.576 70.5589 14.7253 70.5589 14.896ZM85.1147 18.288H90.0747V22H80.6347V1.296H90.0747V4.944H85.1147V9.808H89.7547V13.328H85.1147V18.288ZM100.506 0.976C103.151 0.976 104.474 2.384 104.474 5.2V22H99.9939V15.056H96.7619V22H92.2819V5.2C92.2819 2.384 93.6046 0.976 96.2499 0.976H100.506ZM96.7619 11.6H99.9939V4.656C99.9939 4.48533 99.9299 4.336 99.8019 4.208C99.6952 4.08 99.5566 4.016 99.3859 4.016H97.3699C97.1992 4.016 97.0499 4.08 96.9219 4.208C96.8152 4.336 96.7619 4.48533 96.7619 4.656V11.6ZM106.245 5.104V1.296H117.445V5.104H114.085V22H109.605V5.104H106.245Z" fill="white"/>
</svg>
